<svg width="32" height="32" viewBox="0 0 32 32" fill="none" xmlns="http://www.w3.org/2000/svg">
<circle cx="16" cy="16" r="16" fill="#00f5cc"/>
<path d="M15.9141 15.1814H15.4814C15.5849 15.1903 15.6896 15.1981 15.7942 15.2036C15.8259 15.1947 15.8659 15.187 15.9141 15.1814Z" fill="white"/>
<path d="M9.90522 17.5263C7.96763 19.1759 7 21.2026 7 23.6042H8.38853C8.38853 21.5886 9.20566 19.8878 10.8423 18.5029C12.3061 17.2404 13.9521 16.5785 15.7815 16.5174H15.9755H16.3952C18.2035 16.5785 19.8178 17.2204 21.2381 18.4417C22.8523 19.8066 23.6601 21.5263 23.6601 23.6042H25.0486C25.0486 21.2015 24.0904 19.1547 22.1751 17.4651C21.7613 17.108 21.3051 16.7854 20.8077 16.4951H11.369C10.8576 16.7899 10.3696 17.1314 9.90522 17.5263Z" fill="white" stroke="white" stroke-width="0.5"/>
<path d="M9.90522 14.0777C7.96763 12.4281 7 10.4014 7 7.99985H8.38853C8.38853 10.0154 9.20566 11.7162 10.8423 13.1011C12.3061 14.3636 13.9521 15.0255 15.7815 15.0866H15.9755H16.3952C18.2035 15.0255 19.8178 14.3836 21.2381 13.1623C22.8523 11.7974 23.6601 10.0777 23.6601 7.99985H25.0486C25.0486 10.4025 24.0904 12.4493 22.1751 14.1389C21.7613 14.496 21.3051 14.8186 20.8077 15.1089H11.369C10.8576 14.8141 10.3696 14.4726 9.90522 14.0777Z" fill="white" stroke="white" stroke-width="0.5"/>
</svg>
