<svg width="175" height="22" viewBox="0 0 175 22" fill="none" xmlns="http://www.w3.org/2000/svg">
<path d="M103.007 9.87402H102.412C102.554 9.88626 102.698 9.89697 102.842 9.90461C102.885 9.89238 102.94 9.88167 103.007 9.87402Z" fill="#5616D4"/>
<path d="M23.3052 0.299316H22.8606H21.396H16.8242H12.296H10.8314H10.3868H10.2979C7.45747 0.354378 5.00021 1.47396 2.92932 3.65805C0.976439 5.75802 0 8.13789 0 10.7977V13.2341V17.7705V20.2911V21.0467V21.2149V21.2991H1.90923V21.2149V21.0467V20.2911V17.7705V13.2341V11.6802H2.21962H3.64063H7.94569H12.2524H13.6734H14.0727H14.2505V9.87385H14.0727H13.6734H12.2524H7.94569H3.64063H2.21962H1.95288C2.1889 7.99871 3.00368 6.33158 4.39397 4.87551C6.02191 3.0845 7.97479 2.16069 10.2542 2.1041H10.3868H10.8314H12.296H16.8242H21.396H22.8606H23.3052H23.4394V0.299316H23.3052Z" fill="#5616D4"/>
<path d="M62.7608 6.47229V2.23105V0.843811V0.424734V0.299316H60.8516V0.424734V0.843811V2.23105V6.47229V9.87385H62.7608V6.47229Z" fill="#5616D4"/>
<path d="M83.0909 6.431V2.23105V0.843811V0.424734V0.299316H81.1816V0.424734V0.843811V2.23105V6.431V9.87385H83.0909V6.431Z" fill="#5616D4"/>
<path d="M81.1822 12.058V12.4358V12.4771C81.1224 14.7178 80.175 16.5792 78.3418 18.0628C76.536 19.5188 74.4797 20.2193 72.1711 20.1627C69.8028 20.1627 67.6721 19.4485 65.779 18.0215C63.7663 16.5379 62.7608 14.7178 62.7608 12.5612V12.4771V12.0993V11.6787H60.8516V12.0993V12.4771V12.6025C60.8516 15.2898 62.0947 17.5733 64.5811 19.4485C66.8298 21.1278 69.3598 21.969 72.1728 21.969C74.9841 22.0241 77.4542 21.1707 79.5866 19.4072C81.8353 17.6161 83.0057 15.3479 83.0946 12.604V12.5199V12.4358V12.058V11.6802H81.1854V12.058H81.1822Z" fill="#5616D4"/>
<path d="M111.586 8.64568C114.279 6.43405 115.595 3.70393 115.537 0.455322H113.628C113.657 3.14262 112.562 5.42613 110.343 7.30127C108.448 8.92557 106.243 9.77902 103.728 9.86314H103.239C103.15 9.86314 103.073 9.8662 103.005 9.87385H109.885C110.487 9.51748 111.052 9.10758 111.586 8.64568Z" fill="#5616D4"/>
<path d="M94.8052 13.098C92.141 15.3662 90.8105 18.1529 90.8105 21.4551H92.7198C92.7198 18.6837 93.8433 16.3451 96.0937 14.4409C98.1064 12.7049 100.37 11.7949 102.885 11.7108H103.152H103.729C106.215 11.7949 108.435 12.6774 110.388 14.3568C112.607 16.2334 113.718 18.598 113.718 21.4551H115.627C115.627 18.1514 114.31 15.3372 111.676 13.0139C111.107 12.5229 110.48 12.0794 109.796 11.6802H96.8179C96.1147 12.0855 95.4438 12.555 94.8052 13.098Z" fill="#5616D4"/>
<path d="M96.0478 7.30127C93.799 5.42613 92.6739 3.14262 92.6739 0.455322H90.7646C90.8228 3.73147 92.1695 6.46158 94.8046 8.64568C95.3655 9.10911 95.9524 9.51748 96.5618 9.87385H102.409C100.012 9.66584 97.8907 8.8078 96.0478 7.30127Z" fill="#5616D4"/>
<path d="M145.585 6.431V2.23105V0.843811V0.424734V0.299316H143.675V0.424734V0.843811V2.23105V6.431V9.87385H145.585V6.431Z" fill="#5616D4"/>
<path d="M143.675 12.058V12.4358V12.4771C143.616 14.7178 142.668 16.5792 140.835 18.0628C139.029 19.5188 136.973 20.2193 134.664 20.1627C132.296 20.1627 130.165 19.4485 128.272 18.0215C126.259 16.5379 125.254 14.7178 125.254 12.5612V12.4771V12.0993V11.6787H123.345V12.0993V12.4771V12.6025C123.345 15.2898 124.588 17.5733 127.074 19.4485C129.323 21.1278 131.853 21.969 134.666 21.969C137.477 22.0241 139.947 21.1707 142.08 19.4072C144.328 17.6161 145.497 15.3479 145.586 12.604V12.5199V12.4358V12.058V11.6802H143.677V12.058H143.675Z" fill="#5616D4"/>
<path d="M125.254 6.47229V2.23105V0.843811V0.424734V0.299316H123.345V0.424734V0.843811V2.23105V6.47229V9.87385H125.254V6.47229Z" fill="#5616D4"/>
<path d="M32.9343 -0.000488281V0.126458V0.505769V1.85324V5.89718V9.98395V11.3314V11.7107V11.7948C32.9343 13.9009 33.943 15.6705 35.9622 17.1037C37.8617 18.5368 39.9989 19.2526 42.3753 19.2526H44.2005H51.4138H52.6166H52.9286H53.0175H53.0628V21.0635H53.0175H52.9286H52.6166H51.4138H44.1552H42.3737C39.5527 21.0635 37.0146 20.2207 34.7594 18.5353C32.265 16.7091 31.0186 14.4776 31.0186 11.8361V11.7092V11.3329V9.98548V5.89718V1.85324V0.505769V0.126458V-0.000488281H32.9343Z" fill="#5616D4"/>
<path d="M174.952 9.87362V9.53867V8.02601V7.62529V7.49222C174.922 5.11847 174.21 3.26475 172.815 1.92951C171.627 0.831347 170.306 0.283794 168.853 0.283794C167.367 0.224144 166.048 0.757932 164.889 1.88516C163.523 3.1898 162.841 4.91047 162.841 7.04715V7.31481V8.24932C162.841 8.63474 162.847 9.05688 162.863 9.51725C162.878 9.9761 162.886 10.4732 162.886 11.0085V13.8105V14.7007V15.057C162.855 16.7777 162.336 18.0823 161.328 18.9725C160.586 19.6546 159.695 20.0248 158.655 20.0859C157.705 20.0859 156.83 19.7296 156.028 19.0184C155.078 18.1573 154.604 17.0163 154.604 15.5923V15.4593V15.1473V13.6346V11.9874L154.615 11.5973H152.69V13.6316V13.6805V15.1457V15.4577V15.5908V15.7254C152.75 17.6831 153.432 19.2554 154.738 20.4423C155.867 21.4808 157.187 21.9993 158.702 21.9993C160.215 21.9397 161.522 21.4059 162.621 20.398C164.016 19.1224 164.743 17.2824 164.803 14.8796V14.7022V13.8105V11.007C164.803 10.4732 164.795 9.9761 164.781 9.51572C164.766 9.05535 164.758 8.63321 164.758 8.24779V7.31328V7.04562V7.00126C164.758 5.3999 165.248 4.15337 166.228 3.26322C167.029 2.49083 167.904 2.13599 168.855 2.19564C169.805 2.19564 170.68 2.5673 171.482 3.3091C172.521 4.28797 173.04 5.74097 173.04 7.66964V8.02601V9.53867V9.87362H174.952Z" fill="#5616D4"/>
</svg>
