<svg width="175" height="22" viewBox="0 0 175 22" fill="none" xmlns="http://www.w3.org/2000/svg">
<path d="M103.007 9.87451H102.412C102.554 9.88675 102.698 9.89745 102.842 9.9051C102.885 9.89287 102.94 9.88216 103.007 9.87451Z" fill="white"/>
<path d="M23.3052 0.299805H22.8606H21.396H16.8242H12.296H10.8314H10.3868H10.2979C7.45747 0.354866 5.00021 1.47444 2.92932 3.65854C0.976439 5.75851 0 8.13838 0 10.7981V13.2346V17.771V20.2916V21.0472V21.2154V21.2995H1.90923V21.2154V21.0472V20.2916V17.771V13.2346V11.6807H2.21962H3.64063H7.94569H12.2524H13.6734H14.0727H14.2505V9.87434H14.0727H13.6734H12.2524H7.94569H3.64063H2.21962H1.95288C2.1889 7.9992 3.00368 6.33207 4.39397 4.876C6.02191 3.08498 7.97479 2.16118 10.2542 2.10459H10.3868H10.8314H12.296H16.8242H21.396H22.8606H23.3052H23.4394V0.299805H23.3052Z" fill="white"/>
<path d="M62.7608 6.47278V2.23154V0.844299V0.425222V0.299805H60.8516V0.425222V0.844299V2.23154V6.47278V9.87434H62.7608V6.47278Z" fill="white"/>
<path d="M83.0909 6.43148V2.23154V0.844299V0.425222V0.299805H81.1816V0.425222V0.844299V2.23154V6.43148V9.87434H83.0909V6.43148Z" fill="white"/>
<path d="M81.1822 12.0585V12.4363V12.4776C81.1224 14.7183 80.175 16.5796 78.3418 18.0632C76.536 19.5193 74.4797 20.2198 72.1711 20.1632C69.8028 20.1632 67.6721 19.4489 65.779 18.0219C63.7663 16.5384 62.7608 14.7183 62.7608 12.5617V12.4776V12.0998V11.6792H60.8516V12.0998V12.4776V12.603C60.8516 15.2903 62.0947 17.5738 64.5811 19.449C66.8298 21.1283 69.3598 21.9695 72.1728 21.9695C74.9841 22.0246 77.4542 21.1711 79.5866 19.4077C81.8353 17.6166 83.0057 15.3484 83.0946 12.6045V12.5204V12.4363V12.0585V11.6807H81.1854V12.0585H81.1822Z" fill="white"/>
<path d="M111.586 8.64617C114.279 6.43454 115.595 3.70442 115.537 0.455811H113.628C113.657 3.1431 112.562 5.42662 110.343 7.30176C108.448 8.92606 106.243 9.77951 103.728 9.86363H103.239C103.15 9.86363 103.073 9.86669 103.005 9.87434H109.885C110.487 9.51797 111.052 9.10807 111.586 8.64617Z" fill="white"/>
<path d="M94.8052 13.0985C92.141 15.3667 90.8105 18.1534 90.8105 21.4556H92.7198C92.7198 18.6841 93.8433 16.3456 96.0937 14.4414C98.1064 12.7054 100.37 11.7954 102.885 11.7113H103.152H103.729C106.215 11.7954 108.435 12.6779 110.388 14.3573C112.607 16.2339 113.718 18.5985 113.718 21.4556H115.627C115.627 18.1519 114.31 15.3376 111.676 13.0144C111.107 12.5234 110.48 12.0799 109.796 11.6807H96.8179C96.1147 12.086 95.4438 12.5555 94.8052 13.0985Z" fill="white"/>
<path d="M96.0478 7.30176C93.799 5.42662 92.6739 3.1431 92.6739 0.455811H90.7646C90.8228 3.73195 92.1695 6.46207 94.8046 8.64617C95.3655 9.1096 95.9524 9.51797 96.5618 9.87434H102.409C100.012 9.66633 97.8907 8.80829 96.0478 7.30176Z" fill="white"/>
<path d="M145.585 6.43148V2.23154V0.844299V0.425222V0.299805H143.675V0.425222V0.844299V2.23154V6.43148V9.87434H145.585V6.43148Z" fill="white"/>
<path d="M143.675 12.0585V12.4363V12.4776C143.616 14.7183 142.668 16.5796 140.835 18.0632C139.029 19.5193 136.973 20.2198 134.664 20.1632C132.296 20.1632 130.165 19.4489 128.272 18.0219C126.259 16.5384 125.254 14.7183 125.254 12.5617V12.4776V12.0998V11.6792H123.345V12.0998V12.4776V12.603C123.345 15.2903 124.588 17.5738 127.074 19.449C129.323 21.1283 131.853 21.9695 134.666 21.9695C137.477 22.0246 139.947 21.1711 142.08 19.4077C144.328 17.6166 145.497 15.3484 145.586 12.6045V12.5204V12.4363V12.0585V11.6807H143.677V12.0585H143.675Z" fill="white"/>
<path d="M125.254 6.47278V2.23154V0.844299V0.425222V0.299805H123.345V0.425222V0.844299V2.23154V6.47278V9.87434H125.254V6.47278Z" fill="white"/>
<path d="M32.9343 0V0.126947V0.506257V1.85373V5.89767V9.98443V11.3319V11.7112V11.7953C32.9343 13.9014 33.943 15.671 35.9622 17.1042C37.8617 18.5373 39.9989 19.2531 42.3753 19.2531H44.2005H51.4138H52.6166H52.9286H53.0175H53.0628V21.064H53.0175H52.9286H52.6166H51.4138H44.1552H42.3737C39.5527 21.064 37.0146 20.2212 34.7594 18.5357C32.265 16.7096 31.0186 14.478 31.0186 11.8366V11.7097V11.3334V9.98596V5.89767V1.85373V0.506257V0.126947V0H32.9343Z" fill="white"/>
<path d="M174.952 9.87411V9.53916V8.0265V7.62578V7.49271C174.922 5.11896 174.21 3.26524 172.815 1.93C171.627 0.831835 170.306 0.284282 168.853 0.284282C167.367 0.224632 166.048 0.75842 164.889 1.88565C163.523 3.19029 162.841 4.91095 162.841 7.04764V7.31529V8.2498C162.841 8.63523 162.847 9.05737 162.863 9.51774C162.878 9.97659 162.886 10.4737 162.886 11.009V13.811V14.7011V15.0575C162.855 16.7782 162.336 18.0828 161.328 18.973C160.586 19.6551 159.695 20.0253 158.655 20.0864C157.705 20.0864 156.83 19.7301 156.028 19.0189C155.078 18.1578 154.604 17.0168 154.604 15.5928V15.4598V15.1478V13.6351V11.9878L154.615 11.5978H152.69V13.632V13.681V15.1462V15.4582V15.5913V15.7259C152.75 17.6836 153.432 19.2559 154.738 20.4428C155.867 21.4813 157.187 21.9998 158.702 21.9998C160.215 21.9402 161.522 21.4064 162.621 20.3985C164.016 19.1229 164.743 17.2829 164.803 14.8801V14.7027V13.811V11.0075C164.803 10.4737 164.795 9.97659 164.781 9.51621C164.766 9.05584 164.758 8.6337 164.758 8.24828V7.31376V7.0461V7.00175C164.758 5.40039 165.248 4.15386 166.228 3.26371C167.029 2.49132 167.904 2.13648 168.855 2.19613C169.805 2.19613 170.68 2.56779 171.482 3.30959C172.521 4.28846 173.04 5.74146 173.04 7.67013V8.0265V9.53916V9.87411H174.952Z" fill="white"/>
</svg>
