<svg width="22" height="22" viewBox="0 0 22 22" fill="none" xmlns="http://www.w3.org/2000/svg">
<circle cx="11" cy="11" r="11" fill="white"/>
<path d="M10.9413 10.4371H10.6438C10.7149 10.4433 10.7869 10.4486 10.8588 10.4524C10.8806 10.4463 10.9081 10.441 10.9413 10.4371Z" fill="white"/>
<path d="M14.3367 6.05803L12.0358 9.47498C11.9593 9.58965 11.9899 9.74253 12.1046 9.81133C12.1963 9.87248 12.3186 9.86484 12.4027 9.79604L14.6654 7.83148C14.7036 7.8009 14.7648 7.8009 14.7953 7.83912C14.8106 7.85441 14.8183 7.87735 14.8183 7.90028V14.0539C14.8183 14.1074 14.7801 14.1456 14.7265 14.1456C14.696 14.1456 14.673 14.1303 14.6577 14.115L7.80855 5.91279C7.58687 5.65288 7.25817 5.5 6.91418 5.5H6.67721C6.02745 5.5 5.5 6.02745 5.5 6.66956V15.3304C5.5 15.9802 6.02745 16.5 6.66956 16.5C7.0747 16.5 7.45691 16.286 7.67095 15.942L9.97186 12.5327C10.0483 12.418 10.0177 12.2651 9.90306 12.1963C9.81133 12.1352 9.68902 12.1428 9.60493 12.2116L7.34225 14.1762C7.30403 14.2067 7.24288 14.2067 7.2123 14.1685C7.19701 14.1532 7.18937 14.1303 7.18937 14.1074V7.95379C7.18937 7.90028 7.22759 7.86206 7.2811 7.86206C7.31167 7.86206 7.33461 7.87735 7.3499 7.89263L14.1915 16.0872C14.4131 16.3471 14.7418 16.5 15.0858 16.5H15.3228C15.9726 16.5 16.4924 15.9726 16.4924 15.3304V6.66956C16.5076 6.02745 15.9802 5.5 15.3381 5.5C14.9253 5.5 14.5507 5.71404 14.3367 6.05803Z" fill="black"/>
</svg>
