<svg width="16" height="16" viewBox="0 0 16 16" fill="none" xmlns="http://www.w3.org/2000/svg">
<path d="M7.188 10.48V10.192C7.188 9.912 7.22 9.644 7.284 9.388C7.356 9.132 7.472 8.872 7.632 8.608C7.792 8.336 8.016 8.044 8.304 7.732C8.528 7.476 8.708 7.248 8.844 7.048C8.98 6.84 9.076 6.644 9.132 6.46C9.188 6.268 9.216 6.072 9.216 5.872C9.216 5.496 9.08 5.2 8.808 4.984C8.536 4.768 8.164 4.66 7.692 4.66C7.38 4.66 7.084 4.7 6.804 4.78C6.524 4.86 6.256 4.968 6 5.104V4.384C6.256 4.264 6.532 4.172 6.828 4.108C7.124 4.036 7.424 4 7.728 4C8.176 4 8.568 4.076 8.904 4.228C9.24 4.372 9.5 4.58 9.684 4.852C9.876 5.124 9.972 5.452 9.972 5.836C9.972 6.092 9.932 6.336 9.852 6.568C9.78 6.8 9.66 7.04 9.492 7.288C9.324 7.528 9.104 7.796 8.832 8.092C8.44 8.524 8.16 8.9 7.992 9.22C7.832 9.532 7.736 9.86 7.704 10.204L7.668 10.48H7.188ZM6.912 12.556V11.524H7.932V12.556H6.912Z" fill="#D5D5D8"/>
<circle cx="8" cy="8" r="7.7" stroke="#D5D5D8" stroke-width="0.6"/>
</svg>
