<svg width="12" height="12" viewBox="0 0 12 12" fill="none" xmlns="http://www.w3.org/2000/svg">
<path d="M5.391 7.86V7.644C5.391 7.434 5.415 7.233 5.463 7.041C5.517 6.849 5.604 6.654 5.724 6.456C5.844 6.252 6.012 6.033 6.228 5.799C6.396 5.607 6.531 5.436 6.633 5.286C6.735 5.13 6.807 4.983 6.849 4.845C6.891 4.701 6.912 4.554 6.912 4.404C6.912 4.122 6.81 3.9 6.606 3.738C6.402 3.576 6.123 3.495 5.769 3.495C5.535 3.495 5.313 3.525 5.103 3.585C4.893 3.645 4.692 3.726 4.5 3.828V3.288C4.692 3.198 4.899 3.129 5.121 3.081C5.343 3.027 5.568 3 5.796 3C6.132 3 6.426 3.057 6.678 3.171C6.93 3.279 7.125 3.435 7.263 3.639C7.407 3.843 7.479 4.089 7.479 4.377C7.479 4.569 7.449 4.752 7.389 4.926C7.335 5.1 7.245 5.28 7.119 5.466C6.993 5.646 6.828 5.847 6.624 6.069C6.33 6.393 6.12 6.675 5.994 6.915C5.874 7.149 5.802 7.395 5.778 7.653L5.751 7.86H5.391ZM5.184 9.417V8.643H5.949V9.417H5.184Z" fill="#7623F5"/>
<circle cx="6" cy="6" r="5.7" stroke="#7623F5" stroke-width="0.6"/>
</svg>
